<mxfile host="app.diagrams.net" agent="Mozilla/5.0 (Windows NT 10.0; Win64; x64) AppleWebKit/537.36 (KHTML, like Gecko) Chrome/133.0.0.0 Safari/537.36 Edg/133.0.0.0" version="26.1.0" pages="2">
  <diagram name="Page-1" id="2MacNTB7koKtpDKPepXk">
    <mxGraphModel dx="951" dy="517" grid="1" gridSize="10" guides="1" tooltips="1" connect="1" arrows="1" fold="1" page="1" pageScale="1" pageWidth="850" pageHeight="1100" math="0" shadow="0">
      <root>
        <mxCell id="0" />
        <mxCell id="1" parent="0" />
        <mxCell id="NKo4bQyZYU-aCthguOdS-1" value="PESSOA" style="rounded=0;whiteSpace=wrap;html=1;" vertex="1" parent="1">
          <mxGeometry x="100" y="160" width="120" height="60" as="geometry" />
        </mxCell>
        <mxCell id="NKo4bQyZYU-aCthguOdS-2" value="Nome" style="text;html=1;align=center;verticalAlign=middle;whiteSpace=wrap;rounded=0;" vertex="1" parent="1">
          <mxGeometry x="100" y="230" width="60" height="30" as="geometry" />
        </mxCell>
        <mxCell id="NKo4bQyZYU-aCthguOdS-3" value="Email" style="text;html=1;align=center;verticalAlign=middle;whiteSpace=wrap;rounded=0;" vertex="1" parent="1">
          <mxGeometry x="100" y="250" width="60" height="30" as="geometry" />
        </mxCell>
        <mxCell id="NKo4bQyZYU-aCthguOdS-5" value="TELEFONE" style="rounded=0;whiteSpace=wrap;html=1;" vertex="1" parent="1">
          <mxGeometry x="510" y="160" width="120" height="60" as="geometry" />
        </mxCell>
        <mxCell id="NKo4bQyZYU-aCthguOdS-6" value="DDD" style="text;html=1;align=center;verticalAlign=middle;whiteSpace=wrap;rounded=0;" vertex="1" parent="1">
          <mxGeometry x="525" y="230" width="60" height="30" as="geometry" />
        </mxCell>
        <mxCell id="NKo4bQyZYU-aCthguOdS-7" value="Numero" style="text;html=1;align=center;verticalAlign=middle;whiteSpace=wrap;rounded=0;" vertex="1" parent="1">
          <mxGeometry x="525" y="260" width="60" height="30" as="geometry" />
        </mxCell>
        <mxCell id="NKo4bQyZYU-aCthguOdS-10" style="edgeStyle=orthogonalEdgeStyle;rounded=0;orthogonalLoop=1;jettySize=auto;html=1;entryX=0;entryY=0.5;entryDx=0;entryDy=0;endArrow=none;startFill=0;" edge="1" parent="1" source="NKo4bQyZYU-aCthguOdS-8" target="NKo4bQyZYU-aCthguOdS-5">
          <mxGeometry relative="1" as="geometry" />
        </mxCell>
        <mxCell id="NKo4bQyZYU-aCthguOdS-8" value="TEM" style="rhombus;whiteSpace=wrap;html=1;" vertex="1" parent="1">
          <mxGeometry x="320" y="150" width="80" height="80" as="geometry" />
        </mxCell>
        <mxCell id="NKo4bQyZYU-aCthguOdS-9" style="edgeStyle=orthogonalEdgeStyle;rounded=0;orthogonalLoop=1;jettySize=auto;html=1;strokeColor=default;endArrow=none;startFill=0;" edge="1" parent="1" source="NKo4bQyZYU-aCthguOdS-1">
          <mxGeometry relative="1" as="geometry">
            <mxPoint x="320" y="190" as="targetPoint" />
          </mxGeometry>
        </mxCell>
        <mxCell id="NKo4bQyZYU-aCthguOdS-12" value="N" style="text;html=1;align=center;verticalAlign=middle;resizable=0;points=[];autosize=1;strokeColor=none;fillColor=none;" vertex="1" parent="1">
          <mxGeometry x="470" y="160" width="30" height="30" as="geometry" />
        </mxCell>
        <mxCell id="NKo4bQyZYU-aCthguOdS-13" value="1" style="text;html=1;align=center;verticalAlign=middle;resizable=0;points=[];autosize=1;strokeColor=none;fillColor=none;" vertex="1" parent="1">
          <mxGeometry x="230" y="160" width="30" height="30" as="geometry" />
        </mxCell>
        <mxCell id="NKo4bQyZYU-aCthguOdS-15" value="IDPessoa" style="text;html=1;align=center;verticalAlign=middle;whiteSpace=wrap;rounded=0;" vertex="1" parent="1">
          <mxGeometry x="525" y="290" width="60" height="30" as="geometry" />
        </mxCell>
      </root>
    </mxGraphModel>
  </diagram>
  <diagram id="sBc9UYMtKYG7Nf1gsWFR" name="Page-2">
    <mxGraphModel dx="951" dy="517" grid="1" gridSize="10" guides="1" tooltips="1" connect="1" arrows="1" fold="1" page="1" pageScale="1" pageWidth="850" pageHeight="1100" math="0" shadow="0">
      <root>
        <mxCell id="0" />
        <mxCell id="1" parent="0" />
        <mxCell id="nr4ra8NG38V1K46wmyqt-5" style="edgeStyle=orthogonalEdgeStyle;rounded=0;orthogonalLoop=1;jettySize=auto;html=1;entryX=0;entryY=0.5;entryDx=0;entryDy=0;" edge="1" parent="1" source="nr4ra8NG38V1K46wmyqt-1" target="nr4ra8NG38V1K46wmyqt-2">
          <mxGeometry relative="1" as="geometry">
            <Array as="points">
              <mxPoint x="50" y="140" />
              <mxPoint x="50" y="80" />
            </Array>
          </mxGeometry>
        </mxCell>
        <mxCell id="nr4ra8NG38V1K46wmyqt-20" style="edgeStyle=orthogonalEdgeStyle;rounded=0;orthogonalLoop=1;jettySize=auto;html=1;entryX=0;entryY=0.5;entryDx=0;entryDy=0;" edge="1" parent="1" source="nr4ra8NG38V1K46wmyqt-1" target="nr4ra8NG38V1K46wmyqt-19">
          <mxGeometry relative="1" as="geometry" />
        </mxCell>
        <mxCell id="nr4ra8NG38V1K46wmyqt-28" style="edgeStyle=orthogonalEdgeStyle;rounded=0;orthogonalLoop=1;jettySize=auto;html=1;" edge="1" parent="1" source="nr4ra8NG38V1K46wmyqt-1" target="nr4ra8NG38V1K46wmyqt-27">
          <mxGeometry relative="1" as="geometry">
            <mxPoint x="130" y="300" as="targetPoint" />
          </mxGeometry>
        </mxCell>
        <mxCell id="nr4ra8NG38V1K46wmyqt-33" style="edgeStyle=orthogonalEdgeStyle;rounded=0;orthogonalLoop=1;jettySize=auto;html=1;entryX=0;entryY=0.5;entryDx=0;entryDy=0;" edge="1" parent="1" source="nr4ra8NG38V1K46wmyqt-1" target="nr4ra8NG38V1K46wmyqt-32">
          <mxGeometry relative="1" as="geometry" />
        </mxCell>
        <mxCell id="nr4ra8NG38V1K46wmyqt-1" value="PESSOA" style="rounded=0;whiteSpace=wrap;html=1;" vertex="1" parent="1">
          <mxGeometry x="70" y="110" width="120" height="60" as="geometry" />
        </mxCell>
        <mxCell id="nr4ra8NG38V1K46wmyqt-2" value="Nome" style="ellipse;whiteSpace=wrap;html=1;" vertex="1" parent="1">
          <mxGeometry x="70" y="60" width="120" height="40" as="geometry" />
        </mxCell>
        <mxCell id="nr4ra8NG38V1K46wmyqt-16" style="edgeStyle=orthogonalEdgeStyle;rounded=0;orthogonalLoop=1;jettySize=auto;html=1;entryX=1;entryY=0.5;entryDx=0;entryDy=0;" edge="1" parent="1" source="nr4ra8NG38V1K46wmyqt-12" target="nr4ra8NG38V1K46wmyqt-13">
          <mxGeometry relative="1" as="geometry">
            <Array as="points">
              <mxPoint x="550" y="140" />
              <mxPoint x="550" y="210" />
            </Array>
          </mxGeometry>
        </mxCell>
        <mxCell id="nr4ra8NG38V1K46wmyqt-35" style="edgeStyle=orthogonalEdgeStyle;rounded=0;orthogonalLoop=1;jettySize=auto;html=1;entryX=1;entryY=0.5;entryDx=0;entryDy=0;" edge="1" parent="1" source="nr4ra8NG38V1K46wmyqt-12" target="nr4ra8NG38V1K46wmyqt-34">
          <mxGeometry relative="1" as="geometry">
            <Array as="points">
              <mxPoint x="550" y="140" />
              <mxPoint x="550" y="310" />
            </Array>
          </mxGeometry>
        </mxCell>
        <mxCell id="nr4ra8NG38V1K46wmyqt-12" value="TELEFONE" style="rounded=0;whiteSpace=wrap;html=1;" vertex="1" parent="1">
          <mxGeometry x="410" y="110" width="120" height="60" as="geometry" />
        </mxCell>
        <mxCell id="nr4ra8NG38V1K46wmyqt-13" value="DDD" style="ellipse;whiteSpace=wrap;html=1;" vertex="1" parent="1">
          <mxGeometry x="410" y="190" width="120" height="40" as="geometry" />
        </mxCell>
        <mxCell id="nr4ra8NG38V1K46wmyqt-14" value="Numero" style="ellipse;whiteSpace=wrap;html=1;" vertex="1" parent="1">
          <mxGeometry x="410" y="240" width="120" height="40" as="geometry" />
        </mxCell>
        <mxCell id="nr4ra8NG38V1K46wmyqt-18" style="edgeStyle=orthogonalEdgeStyle;rounded=0;orthogonalLoop=1;jettySize=auto;html=1;exitX=1;exitY=0.5;exitDx=0;exitDy=0;entryX=1.005;entryY=0.587;entryDx=0;entryDy=0;entryPerimeter=0;" edge="1" parent="1" source="nr4ra8NG38V1K46wmyqt-12" target="nr4ra8NG38V1K46wmyqt-14">
          <mxGeometry relative="1" as="geometry" />
        </mxCell>
        <mxCell id="nr4ra8NG38V1K46wmyqt-21" style="edgeStyle=orthogonalEdgeStyle;rounded=0;orthogonalLoop=1;jettySize=auto;html=1;exitX=1;exitY=0.5;exitDx=0;exitDy=0;entryX=0;entryY=0.5;entryDx=0;entryDy=0;" edge="1" parent="1" source="nr4ra8NG38V1K46wmyqt-19" target="nr4ra8NG38V1K46wmyqt-12">
          <mxGeometry relative="1" as="geometry" />
        </mxCell>
        <mxCell id="nr4ra8NG38V1K46wmyqt-19" value="TEM" style="rhombus;whiteSpace=wrap;html=1;" vertex="1" parent="1">
          <mxGeometry x="260" y="100" width="80" height="80" as="geometry" />
        </mxCell>
        <mxCell id="nr4ra8NG38V1K46wmyqt-22" value="0, N" style="text;html=1;align=center;verticalAlign=middle;resizable=0;points=[];autosize=1;strokeColor=none;fillColor=none;" vertex="1" parent="1">
          <mxGeometry x="355" y="108" width="50" height="30" as="geometry" />
        </mxCell>
        <mxCell id="nr4ra8NG38V1K46wmyqt-23" value="1, 1" style="text;html=1;align=center;verticalAlign=middle;resizable=0;points=[];autosize=1;strokeColor=none;fillColor=none;" vertex="1" parent="1">
          <mxGeometry x="190" y="108" width="40" height="30" as="geometry" />
        </mxCell>
        <mxCell id="nr4ra8NG38V1K46wmyqt-26" style="edgeStyle=orthogonalEdgeStyle;rounded=0;orthogonalLoop=1;jettySize=auto;html=1;entryX=1;entryY=0.5;entryDx=0;entryDy=0;" edge="1" parent="1" source="nr4ra8NG38V1K46wmyqt-24" target="nr4ra8NG38V1K46wmyqt-25">
          <mxGeometry relative="1" as="geometry">
            <Array as="points">
              <mxPoint x="380" y="310" />
              <mxPoint x="380" y="380" />
            </Array>
          </mxGeometry>
        </mxCell>
        <mxCell id="nr4ra8NG38V1K46wmyqt-39" style="edgeStyle=orthogonalEdgeStyle;rounded=0;orthogonalLoop=1;jettySize=auto;html=1;entryX=1;entryY=0.5;entryDx=0;entryDy=0;" edge="1" parent="1" source="nr4ra8NG38V1K46wmyqt-24" target="nr4ra8NG38V1K46wmyqt-38">
          <mxGeometry relative="1" as="geometry">
            <Array as="points">
              <mxPoint x="380" y="310" />
              <mxPoint x="380" y="430" />
            </Array>
          </mxGeometry>
        </mxCell>
        <mxCell id="nr4ra8NG38V1K46wmyqt-24" value="EMAIL" style="rounded=0;whiteSpace=wrap;html=1;" vertex="1" parent="1">
          <mxGeometry x="235" y="280" width="120" height="60" as="geometry" />
        </mxCell>
        <mxCell id="nr4ra8NG38V1K46wmyqt-25" value="Email" style="ellipse;whiteSpace=wrap;html=1;strokeWidth=2;" vertex="1" parent="1">
          <mxGeometry x="235" y="360" width="120" height="40" as="geometry" />
        </mxCell>
        <mxCell id="nr4ra8NG38V1K46wmyqt-29" style="edgeStyle=orthogonalEdgeStyle;rounded=0;orthogonalLoop=1;jettySize=auto;html=1;" edge="1" parent="1" source="nr4ra8NG38V1K46wmyqt-27" target="nr4ra8NG38V1K46wmyqt-24">
          <mxGeometry relative="1" as="geometry" />
        </mxCell>
        <mxCell id="nr4ra8NG38V1K46wmyqt-27" value="TEM" style="rhombus;whiteSpace=wrap;html=1;" vertex="1" parent="1">
          <mxGeometry x="90" y="270" width="80" height="80" as="geometry" />
        </mxCell>
        <mxCell id="nr4ra8NG38V1K46wmyqt-30" value="1, N" style="text;html=1;align=center;verticalAlign=middle;resizable=0;points=[];autosize=1;strokeColor=none;fillColor=none;" vertex="1" parent="1">
          <mxGeometry x="175" y="278" width="50" height="30" as="geometry" />
        </mxCell>
        <mxCell id="nr4ra8NG38V1K46wmyqt-31" value="1,1" style="text;html=1;align=center;verticalAlign=middle;resizable=0;points=[];autosize=1;strokeColor=none;fillColor=none;" vertex="1" parent="1">
          <mxGeometry x="130" y="168" width="40" height="30" as="geometry" />
        </mxCell>
        <mxCell id="nr4ra8NG38V1K46wmyqt-32" value="CPF" style="ellipse;whiteSpace=wrap;html=1;strokeWidth=2;" vertex="1" parent="1">
          <mxGeometry x="70" y="10" width="120" height="40" as="geometry" />
        </mxCell>
        <mxCell id="nr4ra8NG38V1K46wmyqt-34" value="ID" style="ellipse;whiteSpace=wrap;html=1;strokeWidth=2;" vertex="1" parent="1">
          <mxGeometry x="411" y="290" width="120" height="40" as="geometry" />
        </mxCell>
        <mxCell id="nr4ra8NG38V1K46wmyqt-36" value="FK_PessoaCPF" style="ellipse;whiteSpace=wrap;html=1;strokeWidth=2;dashed=1;dashPattern=1 1;" vertex="1" parent="1">
          <mxGeometry x="411" y="340" width="120" height="40" as="geometry" />
        </mxCell>
        <mxCell id="nr4ra8NG38V1K46wmyqt-37" style="edgeStyle=orthogonalEdgeStyle;rounded=0;orthogonalLoop=1;jettySize=auto;html=1;entryX=0.999;entryY=0.643;entryDx=0;entryDy=0;entryPerimeter=0;" edge="1" parent="1" source="nr4ra8NG38V1K46wmyqt-12" target="nr4ra8NG38V1K46wmyqt-36">
          <mxGeometry relative="1" as="geometry">
            <Array as="points">
              <mxPoint x="550" y="140" />
              <mxPoint x="550" y="255" />
              <mxPoint x="551" y="255" />
              <mxPoint x="551" y="366" />
            </Array>
          </mxGeometry>
        </mxCell>
        <mxCell id="nr4ra8NG38V1K46wmyqt-38" value="FK_PessoaCPF" style="ellipse;whiteSpace=wrap;html=1;strokeWidth=2;dashed=1;dashPattern=1 1;" vertex="1" parent="1">
          <mxGeometry x="240" y="410" width="120" height="40" as="geometry" />
        </mxCell>
      </root>
    </mxGraphModel>
  </diagram>
</mxfile>
